<svg xmlns="http://www.w3.org/2000/svg" width="1280" height="720" viewBox="0 0 1280 720">
  <defs>
    <linearGradient id="bg" x1="0" y1="0" x2="1" y2="1">
      <stop offset="0%" stop-color="#f8fafc" />
      <stop offset="100%" stop-color="#eef2f7" />
    </linearGradient>
  </defs>
  <rect width="1280" height="720" fill="url(#bg)" />
  <g stroke="#e2e8f0" stroke-width="1">
    <path d="M0 120H1280" />
    <path d="M0 240H1280" />
    <path d="M0 360H1280" />
    <path d="M0 480H1280" />
    <path d="M0 600H1280" />
    <path d="M160 0V720" />
    <path d="M320 0V720" />
    <path d="M480 0V720" />
    <path d="M640 0V720" />
    <path d="M800 0V720" />
    <path d="M960 0V720" />
    <path d="M1120 0V720" />
  </g>
  <g font-family="Inter, Arial, sans-serif" fill="#0f172a">
    <text x="120" y="170" font-size="14" letter-spacing="2" fill="#2563eb">DEVELOPER-FIRST VIDEO INFRASTRUCTURE</text>
    <text x="120" y="260" font-size="54" font-weight="700">Programmatic video</text>
    <text x="120" y="320" font-size="54" font-weight="700">generation for SaaS</text>
    <text x="120" y="380" font-size="54" font-weight="700">products</text>
    <text x="120" y="450" font-size="22" fill="#475569">Generate deterministic, branded videos from structured data using a simple API.</text>
  </g>
  <rect x="120" y="510" width="180" height="52" rx="12" fill="#2563eb" />
  <text x="165" y="543" font-size="18" font-family="Inter, Arial, sans-serif" fill="#ffffff">Get API key</text>
</svg>
